<svg xmlns="http://www.w3.org/2000/svg" width="125" height="58" viewBox="0 0 125 58">
  <g fill="none">
    <path fill="#A83A37" d="M69.0996503,36.7132867 C68.75,36.1451049 68.3129371,35.708042 67.8321678,35.270979 C67.3076923,34.8776224 66.7395105,34.527972 66.0402098,34.3094406 C65.472028,34.1346154 64.8164336,34.0034965 64.1171329,33.9597902 C63.4178322,33.9160839 62.7622378,33.8723776 62.1503497,33.8723776 L58.4353147,33.8723776 L58.4353147,47.4213287 L62.1503497,47.4213287 C62.8059441,47.4213287 63.4615385,47.3776224 64.1171329,47.3339161 C64.7727273,47.2902098 65.3846154,47.1590909 65.9527972,46.9405594 C66.6083916,46.6783217 67.2202797,46.3723776 67.701049,45.9353147 C68.1818182,45.4982517 68.6625874,45.0611888 69.0122378,44.493007 C69.3618881,43.9248252 69.6241259,43.3566434 69.798951,42.6573427 C69.9737762,42.0017483 70.0611888,41.3024476 70.0611888,40.6031469 C70.0611888,39.8601399 69.9737762,39.1608392 69.798951,38.5052448 C69.7115385,37.8496503 69.4493007,37.2377622 69.0996503,36.7132867 Z M65.5594406,43.3566434 C64.9475524,44.0122378 64.1171329,44.3181818 63.0244755,44.3181818 L62.1066434,44.3181818 L62.1066434,36.9755245 L63.0681818,36.9755245 C64.1608392,36.9755245 64.9912587,37.3251748 65.6031469,37.9807692 C66.1713287,38.6363636 66.4772727,39.5541958 66.4772727,40.6905594 C66.4772727,41.8269231 66.1713287,42.701049 65.5594406,43.3566434 Z M112.805944,34.9213287 C112.062937,34.222028 110.882867,33.8723776 109.353147,33.8723776 L105.113636,33.8723776 L105.113636,47.4213287 L106.730769,47.4213287 L106.730769,41.958042 L109.265734,41.958042 C110.795455,41.958042 111.931818,41.6083916 112.718531,40.9527972 C113.505245,40.2972028 113.898601,39.291958 113.898601,37.9807692 C113.942308,36.6258741 113.548951,35.6206294 112.805944,34.9213287 Z M111.407343,39.9475524 C110.882867,40.3409091 110.227273,40.5594406 109.396853,40.5594406 L106.730769,40.5594406 L106.730769,35.270979 L109.353147,35.270979 C110.227273,35.270979 110.926573,35.4895105 111.407343,35.8828671 C111.888112,36.3199301 112.15035,36.9755245 112.15035,37.8933566 C112.194056,38.8548951 111.931818,39.5541958 111.407343,39.9475524 Z M119.318182,33.8723776 L118.312937,33.8723776 L113.111888,47.4213287 L114.816434,47.4213287 L116.346154,43.2255245 L121.241259,43.2255245 L122.858392,47.4213287 L124.606643,47.4213287 L119.318182,33.8723776 Z M116.870629,41.7832168 L118.75,36.6258741 L120.716783,41.7832168 L116.870629,41.7832168 Z M101.573427,41.1276224 C101.223776,40.8216783 100.83042,40.5594406 100.393357,40.2972028 C99.9562937,40.0786713 99.4755245,39.8601399 99.0384615,39.6416084 C98.5576923,39.4230769 98.1206294,39.2482517 97.7272727,39.0734266 C97.3339161,38.8986014 96.9842657,38.7237762 96.722028,38.5052448 C96.4597902,38.3304196 96.2412587,38.1118881 96.0664336,37.8496503 C95.8916084,37.6311189 95.8479021,37.3251748 95.8479021,36.9755245 C95.8479021,36.3636364 96.0664336,35.8828671 96.5034965,35.5332168 C96.9405594,35.1835664 97.5524476,35.0087413 98.3391608,35.0087413 C98.9947552,35.0087413 99.6066434,35.1398601 100.131119,35.4458042 C100.699301,35.7517483 101.136364,36.1451049 101.486014,36.6258741 L102.70979,35.6643357 C102.229021,34.9213287 101.573427,34.3968531 100.786713,34.0472028 C100,33.6975524 99.1695804,33.5227273 98.3391608,33.5227273 C97.770979,33.5227273 97.2465035,33.6101399 96.7657343,33.7412587 C96.2412587,33.8723776 95.8041958,34.0909091 95.4108392,34.3968531 C95.0174825,34.7027972 94.7115385,35.0524476 94.4493007,35.4895105 C94.2307692,35.9265734 94.0996503,36.451049 94.0996503,37.0192308 C94.0996503,37.5874126 94.2307692,38.0681818 94.4493007,38.4615385 C94.6678322,38.8548951 94.9737762,39.2045455 95.3234266,39.5104895 C95.6730769,39.8164336 96.0664336,40.0786713 96.5472028,40.2534965 C96.9842657,40.472028 97.465035,40.6905594 97.9020979,40.8653846 C98.2954545,41.0402098 98.6888112,41.215035 99.0821678,41.3898601 C99.4755245,41.5646853 99.7814685,41.7832168 100.087413,42.0017483 C100.393357,42.2202797 100.611888,42.4825175 100.786713,42.7884615 C100.961538,43.0944056 101.048951,43.4003497 101.048951,43.7937063 C101.048951,44.1870629 100.961538,44.5367133 100.83042,44.8426573 C100.699301,45.1486014 100.480769,45.3671329 100.262238,45.541958 C100.043706,45.7167832 99.7377622,45.8479021 99.4318182,45.9353147 C99.1258741,46.0227273 98.7762238,46.0664336 98.4265734,46.0664336 C97.770979,46.0664336 97.1153846,45.9353147 96.4597902,45.6293706 C95.8041958,45.3234266 95.3234266,44.9300699 94.9300699,44.3618881 L93.6625874,45.3234266 C93.8811189,45.6730769 94.1870629,45.979021 94.5367133,46.284965 C94.8863636,46.5472028 95.2797203,46.8094406 95.6730769,46.9842657 C96.0664336,47.1590909 96.5034965,47.3339161 96.9842657,47.4213287 C97.4213287,47.5087413 97.9020979,47.5524476 98.3391608,47.5524476 C98.951049,47.5524476 99.5192308,47.465035 100.043706,47.3339161 C100.568182,47.2027972 101.048951,46.9405594 101.442308,46.6346154 C101.835664,46.3286713 102.185315,45.8916084 102.403846,45.4108392 C102.622378,44.9300699 102.753497,44.3181818 102.753497,43.6188811 C102.753497,43.0506993 102.666084,42.5262238 102.447552,42.1328671 C102.185315,41.8269231 101.923077,41.4335664 101.573427,41.1276224 Z M89.3356643,44.6241259 C89.0297203,44.8863636 88.6800699,45.0174825 88.243007,45.0174825 C87.7622378,45.0174825 87.3251748,44.798951 87.0192308,44.3618881 C86.7132867,43.9248252 86.5384615,43.3129371 86.5384615,42.4388112 C86.5384615,41.5646853 86.7132867,40.9090909 87.0192308,40.472028 C87.3251748,40.0786713 87.7185315,39.8601399 88.1993007,39.8601399 C88.5926573,39.8601399 88.8986014,39.9912587 89.2045455,40.2097902 C89.4667832,40.4283217 89.729021,40.8653846 89.9038462,41.4772727 L92.6136364,40.2972028 C92.4825175,39.8601399 92.263986,39.4667832 92.0454545,39.1171329 C91.7832168,38.7674825 91.4772727,38.4178322 91.1276224,38.1555944 C90.7342657,37.8933566 90.2972028,37.6748252 89.8164336,37.5437063 C89.3356643,37.4125874 88.7237762,37.3251748 88.1118881,37.3251748 C87.4125874,37.3251748 86.7132867,37.4562937 86.1451049,37.6748252 C85.5332168,37.8933566 85.0087413,38.243007 84.5716783,38.6800699 C84.1346154,39.1171329 83.784965,39.6853147 83.5227273,40.2972028 C83.2604895,40.9527972 83.1293706,41.6958042 83.1293706,42.5262238 C83.1293706,43.3566434 83.2604895,44.0996503 83.5227273,44.7115385 C83.784965,45.3671329 84.1346154,45.8916084 84.5716783,46.3286713 C85.0087413,46.7657343 85.5769231,47.0716783 86.1888112,47.3339161 C86.8006993,47.5524476 87.4562937,47.6835664 88.1555944,47.6835664 C89.3793706,47.6835664 90.3409091,47.465035 91.0839161,46.9842657 C91.8269231,46.5034965 92.3951049,45.8041958 92.7884615,44.9300699 L90.1223776,43.6188811 C89.8601399,44.0122378 89.6416084,44.3618881 89.3356643,44.6241259 Z M80.506993,38.7674825 C80.0699301,38.2867133 79.5017483,37.9370629 78.8898601,37.6748252 C78.2342657,37.4125874 77.534965,37.2814685 76.7045455,37.2814685 C75.8741259,37.2814685 75.1311189,37.4125874 74.5192308,37.6748252 C73.8636364,37.9370629 73.3391608,38.2867133 72.9020979,38.7674825 C72.465035,39.2482517 72.1153846,39.7727273 71.8968531,40.3846154 C71.6783217,40.9965035 71.5472028,41.6958042 71.5472028,42.3951049 C71.5472028,43.0944056 71.6783217,43.7937063 71.8968531,44.4055944 C72.1153846,45.0611888 72.465035,45.5856643 72.9020979,46.0664336 C73.3391608,46.5472028 73.9073427,46.8968531 74.5192308,47.1590909 C75.1748252,47.4213287 75.9178322,47.5524476 76.7482517,47.5524476 C77.5786713,47.5524476 78.3216783,47.4213287 78.9335664,47.1590909 C79.5891608,46.8968531 80.1136364,46.5034965 80.5506993,46.0664336 C80.9877622,45.5856643 81.3374126,45.0611888 81.5559441,44.4055944 C81.7744755,43.75 81.9055944,43.0944056 81.9055944,42.3951049 C81.9055944,41.6520979 81.7744755,40.9965035 81.5559441,40.3846154 C81.2937063,39.7727273 80.9440559,39.2482517 80.506993,38.7674825 Z M77.9283217,44.2744755 C77.6223776,44.7552448 77.229021,45.0174825 76.6608392,45.0174825 C76.0926573,45.0174825 75.6555944,44.7552448 75.3496503,44.2744755 C75.0437063,43.7937063 74.9125874,43.1381119 74.9125874,42.4388112 C74.9125874,41.6958042 75.0437063,41.1276224 75.3496503,40.6468531 C75.6555944,40.1660839 76.048951,39.9475524 76.6171329,39.9475524 C77.1853147,39.9475524 77.6223776,40.1660839 77.8846154,40.6468531 C78.1905594,41.1276224 78.3216783,41.7395105 78.3216783,42.4388112 C78.3653846,43.1381119 78.2342657,43.75 77.9283217,44.2744755 Z"/>
    <path fill="#D2433F" d="M21.722028,5.02622378 C23.0332168,5.68181818 23.513986,5.94405594 24.2132867,6.46853147 C24.5629371,6.77447552 24.8251748,7.08041958 25.0437063,7.43006993 C25.3496503,7.91083916 25.5244755,8.61013986 25.3496503,9.44055944 L25.3496503,9.57167832 C25.3496503,9.57167832 25.3496503,9.61538462 25.3496503,9.61538462 C25.3496503,9.7465035 25.4370629,9.83391608 25.5681818,9.83391608 C25.6555944,9.83391608 25.6993007,9.79020979 25.743007,9.7465035 C27.6660839,7.25524476 27.4912587,4.93881119 24.1258741,3.75874126 C21.5034965,2.84090909 21.1538462,1.18006993 21.2412587,0.218531469 C21.1975524,0.0874125874 21.1101399,0 20.979021,0 C20.8916084,0 20.8479021,0.0437062937 20.8041958,0.0874125874 L20.7167832,0.174825175 C19.9300699,1.31118881 19.798951,2.22902098 19.9737762,2.97202797 C19.9737762,3.01573427 20.4108392,4.37062937 21.722028,5.02622378 Z M0.961538462,48.6013986 L1.09265734,52.3601399 C1.09265734,54.9388112 10.708042,57.0367133 22.5961538,57.0367133 C34.4842657,57.0367133 44.0996503,54.9388112 44.0996503,52.3601399 L44.2307692,48.6013986 C40.777972,50.9178322 31.4685315,52.1416084 22.5961538,52.1416084 C13.7237762,52.1853147 4.41433566,50.9178322 0.961538462,48.6013986 Z M19.9737762,16.8269231 C20.0174825,16.8269231 20.0611888,16.8269231 20.0611888,16.8269231 C20.1923077,16.8269231 20.2797203,16.7395105 20.2797203,16.6083916 C20.2797203,16.5646853 20.2797203,16.5646853 20.2797203,16.520979 C19.3618881,14.3793706 20.3234266,14.4230769 23.4265734,10.5332168 C25.8741259,7.47377622 21.3723776,5.81293706 18.8811189,5.20104895 C18.8811189,5.20104895 18.8374126,5.20104895 18.8374126,5.20104895 C18.7062937,5.20104895 18.6188811,5.28846154 18.6188811,5.41958042 C18.6188811,5.50699301 18.6625874,5.5506993 18.7062937,5.59440559 C22.0716783,7.6486014 19.5804196,8.56643357 18.1818182,12.1503497 C17.0017483,15.2097902 18.9685315,16.4335664 19.9737762,16.8269231 Z M44.6241259,37.9807692 L45.0611888,25.3496503 C45.0611888,24.2132867 42.0017483,23.208042 37.1503497,22.5087413 L40.1660839,15.1660839 C40.3409091,14.7727273 40.1223776,14.3793706 39.6853147,14.291958 L25.6555944,12.4125874 C25.2185315,12.3688811 24.7377622,12.6311189 24.5629371,13.0681818 L20.979021,21.6346154 C9.35314685,21.7657343 0.174825175,23.3828671 0.174825175,25.3496503 L0.611888112,37.9807692 C1.66083916,39.3356643 6.51223776,40.8653846 14.1608392,41.520979 L14.291958,42.6573427 C8.3041958,42.1328671 3.05944056,41.0402098 0.655594406,39.4230769 L0.917832168,47.1590909 C2.31643357,48.951049 10.3146853,51.048951 22.5961538,51.048951 C34.8776224,51.048951 42.8758741,48.9073427 44.2744755,47.1590909 L44.5367133,39.4667832 C42.2202797,41.0402098 37.2377622,42.0891608 31.4685315,42.6136364 L31.5996503,41.4772727 C38.986014,40.777972 43.6188811,39.291958 44.6241259,37.9807692 Z M27.3601399,15.034965 L35.8828671,16.2587413 C36.1451049,16.3024476 36.3199301,16.520979 36.2762238,16.7832168 C36.2325175,17.0017483 36.0576923,17.1765734 35.8391608,17.1765734 C35.8391608,17.1765734 35.7954545,17.1765734 35.7954545,17.1765734 L27.2727273,15.9527972 C27.0104895,15.9090909 26.8356643,15.6905594 26.8793706,15.4283217 C26.8793706,15.2097902 27.1416084,15.034965 27.3601399,15.034965 Z M26.3548951,17.3076923 L34.8776224,18.5314685 C35.1398601,18.5751748 35.3146853,18.7937063 35.270979,19.0559441 C35.2272727,19.2744755 35.0524476,19.4493007 34.8339161,19.4493007 C34.8339161,19.4493007 34.7902098,19.4493007 34.7902098,19.4493007 L26.2237762,18.2255245 C25.9615385,18.1818182 25.7867133,17.9632867 25.8304196,17.701049 C25.8741259,17.4825175 26.0926573,17.3076923 26.3548951,17.3076923 Z M25.5681818,19.6241259 L29.9388112,20.236014 C30.201049,20.2797203 30.3758741,20.4982517 30.3321678,20.7604895 C30.2884615,20.979021 30.1136364,21.1538462 29.8951049,21.1538462 C29.8951049,21.1538462 29.8513986,21.1538462 29.8513986,21.1538462 L25.4807692,20.541958 C25.2185315,20.4982517 25.0437063,20.2797203 25.0874126,20.0174825 C25.0874126,19.7552448 25.3059441,19.5804196 25.5681818,19.6241259 Z M29.1083916,44.5804196 L22.9020979,48.0332168 L16.6958042,44.5804196 L15.5594406,34.9213287 L22.9020979,32.298951 L30.2447552,34.9213287 L29.1083916,44.5804196 Z M22.6398601,28.8461538 C11.9318182,28.8461538 3.27797203,27.6223776 3.27797203,26.0926573 C3.27797203,24.6940559 10.708042,23.513986 20.2797203,23.3391608 L19.1870629,25.9615385 C21.2412587,26.2237762 24.1258741,26.3986014 27.7534965,26.3986014 C31.0751748,26.3986014 33.7412587,26.2237762 35.7517483,26.0052448 L36.4947552,24.1258741 C39.9038462,24.6066434 42.0017483,25.3059441 42.0017483,26.048951 C42.0017483,27.6223776 33.3041958,28.8461538 22.6398601,28.8461538 Z M18.3129371,44.2744755 L20.0174825,44.2744755 L20.9353147,41.958042 L24.8251748,41.958042 L25.743007,44.2744755 L27.4475524,44.2744755 L22.9020979,34.0034965 L18.3129371,44.2744755 Z M21.5472028,40.5594406 L22.9020979,37.3251748 L24.256993,40.5594406 L21.5472028,40.5594406 Z"/>
    <path fill="#A83A37" d="M25.743007,44.2744755 L27.4475524,44.2744755 L22.9020979,34.0034965 L22.9020979,37.3251748 L24.256993,40.5594406 L22.9020979,40.5594406 L22.9020979,41.958042 L24.8251748,41.958042 L25.743007,44.2744755 Z M44.6241259,37.9807692 L45.0174825,26.7045455 C45.0174825,28.9772727 35.1398601,30.8566434 22.9020979,30.8566434 L22.9020979,32.2552448 L30.2447552,34.8776224 L29.1083916,44.5804196 L22.9020979,48.0332168 L22.9020979,51.048951 C35.0524476,51.0052448 42.9195804,48.9073427 44.3181818,47.1590909 L44.5804196,39.4667832 C42.263986,41.0402098 37.2814685,42.0891608 31.5122378,42.6136364 L31.6433566,41.4772727 C38.986014,40.777972 43.6188811,39.291958 44.6241259,37.9807692 Z M22.9020979,57.0367133 C34.6590909,56.993007 44.1433566,54.9388112 44.1433566,52.3601399 L44.2744755,48.6013986 C40.8653846,50.9178322 31.6870629,52.1416084 22.9020979,52.1416084 L22.9020979,57.0367133 Z"/>
  </g>
</svg>
