<?xml version="1.0" encoding="utf-8"?>
<!-- Generator: Adobe Illustrator 22.0.1, SVG Export Plug-In . SVG Version: 6.00 Build 0)  -->
<svg version="1.1" id="Layer_1" xmlns="http://www.w3.org/2000/svg" xmlns:xlink="http://www.w3.org/1999/xlink" x="0px" y="0px"
	 viewBox="0 0 154.5 132.5" style="enable-background:new 0 0 154.5 132.5;" xml:space="preserve">
<style type="text/css">
	.st0{fill:#FFFFFF;}
	.st1{fill:none;stroke:#FFFFFF;stroke-width:2;stroke-miterlimit:10;}
	.st2{fill:none;stroke:#FFFFFF;stroke-width:3;stroke-linecap:round;stroke-linejoin:round;stroke-miterlimit:10;}
	.st3{stroke:#000000;stroke-width:5;stroke-miterlimit:10;}
	.st4{fill:#D2433F;}
	.st5{fill:#A83A37;}
	.st6{fill:none;stroke:#000000;stroke-width:5;stroke-linecap:round;stroke-linejoin:round;stroke-miterlimit:10;}
	.st7{fill:#028ACF;}
	.st8{fill:none;stroke:#000000;stroke-width:3.0778;stroke-linecap:round;stroke-linejoin:round;stroke-miterlimit:10;}
	.st9{fill:none;stroke:#FFFFFF;stroke-width:2;stroke-linecap:round;stroke-linejoin:round;stroke-miterlimit:10;}
	.st10{fill:#B53A36;}
	.st11{fill:none;stroke:#FFFFFF;stroke-width:1.0306;stroke-linecap:round;stroke-linejoin:round;stroke-miterlimit:10;}
	.st12{fill:none;stroke:#FFFFFF;stroke-width:1.2917;stroke-linecap:round;stroke-linejoin:round;stroke-miterlimit:10;}
</style>
<path class="st4" d="M71.1,12.4c3,1.5,4.1,2.1,5.7,3.3c0.8,0.7,1.4,1.4,1.9,2.2c0.7,1.1,1.1,2.7,0.7,4.6l-0.1,0.2c0,0,0,0.1,0,0.1
	c0,0.3,0.2,0.5,0.5,0.5c0.2,0,0.3-0.1,0.4-0.2l0,0c4.5-5.7,4-11-3.7-13.7c-6-2.1-6.8-5.9-6.6-8.1l0,0c0-0.3-0.2-0.5-0.5-0.5
	c-0.2,0-0.3,0.1-0.4,0.2l-0.2,0.2c-1.8,2.6-2.1,4.7-1.7,6.4C67.2,7.7,68.1,10.9,71.1,12.4z M23.6,112.2l0.3,8.6
	c0,5.9,22.1,10.7,49.3,10.7s49.3-4.8,49.3-10.7l0.3-8.6c-7.9,5.3-29.2,8.2-49.6,8.2C52.8,120.4,31.5,117.6,23.6,112.2z M67.1,39.4
	L67.1,39.4c0.1,0,0.2,0,0.2,0c0.3,0,0.5-0.2,0.5-0.5c0-0.1,0-0.1,0-0.2l0,0c-2.1-4.9,0.1-4.8,7.2-13.8c5.6-7-4.7-10.8-10.4-12.3l0,0
	c0,0-0.1,0-0.1,0c-0.3,0-0.5,0.2-0.5,0.5c0,0.2,0.1,0.3,0.2,0.4l0,0c7.7,4.7,2,6.8-1.2,15C60.3,35.7,64.9,38.5,67.1,39.4z
	 M123.6,87.9l1-28.9c0-2.6-7-4.9-18.1-6.5l6.9-16.9c0.4-0.9-0.1-1.8-1.1-2l-32.1-4.3c-1-0.1-2.2,0.5-2.5,1.5l-8.2,19.7
	c-26.6,0.3-47.7,4-47.7,8.5l1,28.9c2.4,3.1,13.5,6.6,31,8.1l0.3,2.6c-13.7-1.2-25.7-3.7-31.2-7.4l0.6,17.7
	c3.2,4.1,21.5,8.9,49.7,8.9c28.2,0,46.5-4.9,49.7-8.9l0.6-17.7c-5.3,3.6-16.7,6-29.9,7.2l0.3-2.6C110.6,94.3,121.3,90.8,123.6,87.9z
	 M84.1,35.4l19.5,2.8c0.6,0.1,1,0.6,0.9,1.2c-0.1,0.5-0.5,0.9-1,0.9c0,0-0.1,0-0.1,0l-19.5-2.8c-0.6-0.1-1-0.6-0.9-1.2
	C83,35.7,83.5,35.3,84.1,35.4z M81.7,40.6l19.5,2.8c0.6,0.1,1,0.6,0.9,1.2c-0.1,0.5-0.5,0.9-1,0.9c0,0-0.1,0-0.1,0l-19.5-2.8
	c-0.6-0.1-1-0.6-0.9-1.2C80.6,40.9,81.2,40.5,81.7,40.6z M79.9,45.8l10,1.4c0.6,0.1,1,0.6,0.9,1.2c-0.1,0.5-0.5,0.9-1,0.9
	c0,0-0.1,0-0.1,0l-10-1.4c-0.6-0.1-1-0.6-0.9-1.2C78.8,46.1,79.3,45.7,79.9,45.8z M88,103l-14.2,7.9L59.6,103l-2.6-22.2l16.8-6
	l16.8,6L88,103z M73.2,67c-24.5,0-44.4-2.8-44.4-6.3c0-3.2,17-5.9,39-6.3l-2.5,6c4.7,0.6,11.3,1,19.6,1c7.6,0,13.7-0.4,18.3-0.9
	l1.7-4.3c7.8,1.1,12.6,2.7,12.6,4.4C117.6,64.1,97.7,67,73.2,67z M63.4,102.3h3.9l2.1-5.3h8.9l2.1,5.3h3.9L73.8,78.8L63.4,102.3z
	 M70.8,93.8l3.1-7.4l3.1,7.4H70.8z"/>
<path class="st5" d="M80.4,102.3h3.9L73.8,78.8v7.6l3.1,7.4h-3.1v3.2h4.5L80.4,102.3z M123.6,87.9l0.9-25.8l0,0
	c0,5.2-22.6,9.5-50.7,9.5v3.2l16.8,6L88,103l-14.2,7.9v7c27.8-0.1,45.9-4.9,49.1-8.9l0.6-17.7c-5.3,3.6-16.7,6-29.9,7.2l0.3-2.6
	C110.6,94.3,121.3,90.8,123.6,87.9z M73.8,131.5c26.9-0.1,48.6-4.8,48.6-10.7l0.3-8.6c-7.8,5.3-28.8,8.1-48.9,8.2V131.5z"/>
</svg>
