<?xml version="1.0" standalone="no"?>
<!DOCTYPE svg PUBLIC "-//W3C//DTD SVG 20010904//EN"
 "http://www.w3.org/TR/2001/REC-SVG-20010904/DTD/svg10.dtd">
<svg version="1.0" xmlns="http://www.w3.org/2000/svg"
 width="644.000000pt" height="644.000000pt" viewBox="0 0 644.000000 644.000000"
 preserveAspectRatio="xMidYMid meet">
<metadata>
Created by potrace 1.11, written by Peter Selinger 2001-2013
</metadata>
<g transform="translate(0.000000,644.000000) scale(0.100000,-0.100000)"
fill="#000000" stroke="none">
<path d="M2866 5907 c-74 -96 -91 -228 -41 -313 40 -68 92 -115 170 -154 244
-121 328 -218 320 -370 -3 -61 -1 -70 15 -70 10 0 32 23 54 55 106 161 109
300 7 405 -48 50 -99 80 -218 128 -165 67 -244 163 -255 311 -4 46 -21 49 -52
8z"/>
<path d="M2675 5436 c-16 -12 -13 -17 41 -58 144 -111 152 -161 51 -327 -158
-261 -202 -410 -159 -536 21 -60 98 -142 160 -169 57 -26 69 -14 48 48 -37
109 -21 149 129 321 210 241 247 296 248 374 0 25 -8 63 -18 84 -43 92 -196
188 -395 247 -41 13 -78 24 -81 26 -3 2 -14 -3 -24 -10z"/>
<path d="M3304 4752 c-40 -6 -71 -57 -148 -247 -43 -104 -84 -206 -93 -225 -8
-19 -49 -118 -91 -220 l-77 -185 -35 -1 c-19 -1 -129 -4 -245 -8 -115 -3 -232
-8 -260 -10 -27 -3 -90 -8 -140 -11 -154 -10 -219 -15 -255 -20 -19 -2 -62 -7
-95 -10 -33 -4 -71 -8 -85 -10 -14 -2 -50 -7 -80 -10 -30 -3 -62 -8 -70 -10
-8 -2 -35 -7 -60 -10 -25 -3 -52 -8 -60 -10 -8 -2 -35 -7 -60 -10 -25 -4 -97
-19 -160 -35 -195 -49 -296 -90 -350 -143 l-32 -31 7 -216 c4 -118 8 -260 10
-315 2 -55 6 -174 9 -265 4 -91 9 -225 11 -298 4 -105 9 -139 23 -157 51 -70
406 -196 672 -240 29 -4 62 -11 100 -20 5 -1 126 -18 145 -20 29 -4 132 -18
146 -20 9 -2 52 -6 95 -10 100 -9 102 -10 110 -18 4 -4 9 -27 12 -52 l4 -46
-58 6 c-33 3 -77 7 -99 10 -22 3 -60 7 -85 10 -58 6 -180 23 -250 35 -30 5
-71 12 -90 15 -61 10 -234 46 -265 56 -16 5 -70 20 -120 35 -101 29 -246 87
-287 116 -39 27 -45 23 -42 -33 1 -28 5 -131 8 -228 16 -454 16 -454 38 -478
44 -47 300 -157 413 -177 15 -3 41 -10 58 -15 18 -6 43 -12 57 -15 14 -2 45
-9 70 -15 25 -5 61 -12 80 -16 19 -3 58 -10 85 -15 91 -17 178 -29 320 -45 33
-3 76 -8 95 -10 65 -8 175 -18 225 -20 28 -2 113 -7 190 -11 272 -15 961 -8
1130 11 17 2 68 6 115 10 86 6 104 8 195 20 28 4 66 9 85 11 172 19 437 71
594 115 190 54 316 109 382 167 l32 27 6 195 c3 107 9 275 12 374 l7 178 -39
-24 c-186 -116 -666 -232 -1131 -274 -81 -7 -81 -7 -67 63 6 30 8 31 77 37 40
4 86 9 102 11 17 2 66 9 110 15 125 18 131 19 294 51 265 52 474 120 582 190
80 51 76 39 84 289 4 123 9 256 10 295 6 133 18 530 19 622 1 84 -1 93 -24
118 -68 73 -321 152 -640 201 -19 3 -47 8 -61 10 l-26 5 99 242 c54 133 103
251 108 262 34 73 80 203 80 226 0 34 -16 47 -66 54 -21 3 -68 10 -104 15 -36
5 -83 12 -105 15 -92 11 -141 17 -156 20 -9 2 -40 6 -70 10 -30 3 -115 15
-189 25 -74 11 -157 22 -185 25 -27 4 -62 8 -76 11 -15 2 -47 6 -70 9 -24 3
-73 9 -109 15 -157 23 -272 36 -296 32z m308 -267 c9 -2 38 -7 65 -11 26 -3
55 -8 63 -9 9 -2 43 -6 75 -10 33 -4 68 -9 77 -11 9 -1 68 -10 130 -19 62 -9
129 -18 148 -21 19 -2 63 -9 97 -14 75 -10 83 -15 83 -44 0 -32 -23 -49 -57
-42 -15 3 -50 8 -78 11 -27 3 -61 8 -75 10 -75 11 -112 17 -175 25 -38 6 -101
14 -140 20 -38 6 -88 13 -110 16 -241 33 -254 37 -255 75 0 37 43 44 152 24z
m-78 -220 c30 -5 74 -11 241 -35 83 -12 161 -23 175 -25 14 -3 45 -7 70 -10
179 -23 213 -31 227 -52 13 -19 12 -24 -6 -42 -11 -11 -26 -19 -33 -16 -7 2
-37 6 -67 10 -30 3 -64 8 -75 10 -12 2 -39 6 -61 9 -43 6 -511 72 -560 80 -16
2 -38 5 -48 5 -26 1 -44 46 -26 67 12 15 64 15 163 -1z m-139 -210 c28 -3 61
-7 75 -10 28 -5 55 -9 180 -25 107 -14 118 -17 130 -40 14 -26 -21 -62 -53
-56 -12 3 -40 7 -62 10 -41 5 -170 23 -215 31 -14 2 -47 6 -75 10 -70 8 -82
13 -88 35 -7 25 20 62 41 56 10 -3 40 -7 67 -11z m-575 -355 c0 -8 -74 -190
-91 -222 -7 -13 -5 -18 6 -19 8 -1 18 -2 23 -3 8 -3 152 -17 215 -21 306 -24
935 -23 1157 1 73 9 109 12 147 13 24 1 33 7 39 24 3 12 14 40 24 62 9 22 22
53 29 68 10 26 14 27 48 21 331 -57 483 -114 483 -181 0 -19 -51 -62 -90 -74
-19 -7 -39 -15 -45 -19 -10 -8 -201 -54 -265 -65 -79 -13 -91 -15 -117 -19
-16 -3 -53 -7 -83 -11 -30 -4 -66 -8 -80 -10 -95 -13 -193 -21 -465 -40 -331
-23 -1051 -23 -1400 0 -27 2 -97 6 -154 10 -57 4 -114 9 -125 11 -11 2 -36 4
-56 5 -19 1 -62 5 -95 9 -33 5 -87 11 -120 15 -33 3 -69 8 -80 11 -11 2 -36 6
-55 8 -63 8 -240 47 -303 68 -182 59 -208 117 -83 178 92 44 264 86 476 115
25 3 56 8 70 10 14 2 54 6 90 10 36 3 81 8 100 10 31 4 65 6 245 20 28 2 115
7 195 10 80 4 146 7 147 8 6 7 213 3 213 -3z m535 -946 c148 -52 303 -108 344
-122 l73 -27 -6 -70 c-3 -38 -8 -81 -10 -95 -4 -24 -7 -49 -21 -180 -4 -30
-12 -107 -20 -170 -8 -63 -17 -144 -21 -180 -3 -36 -7 -72 -9 -80 -1 -8 -6
-44 -9 -80 l-7 -65 -294 -162 c-161 -90 -295 -163 -298 -163 -5 0 -106 56
-337 185 -41 23 -111 61 -155 85 -44 23 -83 46 -88 50 -10 8 -14 29 -22 115
-3 39 -8 81 -10 95 -4 28 -13 102 -20 170 -3 25 -7 61 -10 80 -2 19 -9 80 -15
135 -6 55 -13 114 -15 130 -2 17 -7 57 -10 90 -4 33 -8 72 -11 86 -3 21 2 27
29 36 170 59 534 190 582 208 33 13 67 24 75 25 8 0 136 -43 285 -96z"/>
<path d="M3067 2664 c-8 -16 -97 -213 -197 -439 -101 -225 -193 -434 -206
-462 l-24 -53 84 0 84 0 43 109 44 109 182 -1 c100 -1 183 -4 186 -7 2 -3 22
-50 43 -105 l40 -100 87 -3 86 -3 -39 88 c-427 962 -397 898 -413 867z m72
-444 c29 -69 55 -131 58 -137 4 -10 -10 -13 -48 -14 -30 -1 -82 -2 -117 -3
-35 -2 -65 1 -68 5 -6 11 110 290 117 281 3 -4 30 -63 58 -132z"/>
<path d="M989 1289 c-1 -8 0 -43 0 -79 7 -259 10 -299 25 -328 40 -78 202
-160 447 -226 52 -14 105 -27 119 -30 14 -2 59 -11 100 -20 111 -22 225 -41
318 -51 45 -5 64 -8 157 -19 81 -10 194 -19 415 -32 255 -16 992 -9 1178 11
20 2 111 11 201 20 91 9 174 19 185 21 12 2 41 7 66 10 161 19 440 81 585 130
155 51 291 137 314 197 5 13 12 110 16 215 l6 193 -53 -30 c-141 -79 -407
-158 -688 -206 -19 -3 -60 -10 -90 -15 -30 -5 -77 -12 -105 -15 -27 -4 -61 -8
-75 -10 -14 -2 -50 -7 -80 -10 -30 -3 -68 -8 -85 -10 -16 -2 -70 -6 -120 -10
-49 -4 -100 -8 -112 -10 -170 -27 -1063 -26 -1348 1 -27 2 -81 7 -118 9 -80 5
-128 11 -267 30 -14 2 -47 6 -75 10 -58 7 -70 9 -190 30 -49 9 -103 19 -120
21 -184 31 -526 148 -587 202 -15 13 -18 13 -19 1z"/>
</g>
</svg>
