<?xml version="1.0" encoding="utf-8"?>
<!-- Generator: Adobe Illustrator 22.0.1, SVG Export Plug-In . SVG Version: 6.00 Build 0)  -->
<svg version="1.1" id="Layer_1" xmlns="http://www.w3.org/2000/svg" xmlns:xlink="http://www.w3.org/1999/xlink" x="0px" y="0px"
	 viewBox="0 0 288 133.3" style="enable-background:new 0 0 288 133.3;" xml:space="preserve">
<style type="text/css">
	.st0{fill:#FFFFFF;}
	.st1{fill:none;stroke:#FFFFFF;stroke-width:2;stroke-miterlimit:10;}
	.st2{fill:none;stroke:#FFFFFF;stroke-width:3;stroke-linecap:round;stroke-linejoin:round;stroke-miterlimit:10;}
	.st3{stroke:#000000;stroke-width:5;stroke-miterlimit:10;}
	.st4{fill:#D2433F;}
	.st5{fill:#A83A37;}
	.st6{fill:none;stroke:#000000;stroke-width:5;stroke-linecap:round;stroke-linejoin:round;stroke-miterlimit:10;}
	.st7{fill:#028ACF;}
	.st8{fill:none;stroke:#000000;stroke-width:3.0778;stroke-linecap:round;stroke-linejoin:round;stroke-miterlimit:10;}
	.st9{fill:none;stroke:#FFFFFF;stroke-width:2;stroke-linecap:round;stroke-linejoin:round;stroke-miterlimit:10;}
	.st10{fill:#B53A36;}
	.st11{fill:none;stroke:#FFFFFF;stroke-width:1.0306;stroke-linecap:round;stroke-linejoin:round;stroke-miterlimit:10;}
	.st12{fill:none;stroke:#FFFFFF;stroke-width:1.2917;stroke-linecap:round;stroke-linejoin:round;stroke-miterlimit:10;}
</style>
<path class="st5" d="M159.1,85c-0.8-1.3-1.8-2.3-2.9-3.3c-1.2-0.9-2.5-1.7-4.1-2.2c-1.3-0.4-2.8-0.7-4.4-0.8
	c-1.6-0.1-3.1-0.2-4.5-0.2h-8.5v31h8.5c1.5,0,3-0.1,4.5-0.2c1.5-0.1,2.9-0.4,4.2-0.9c1.5-0.6,2.9-1.3,4-2.3s2.2-2,3-3.3
	c0.8-1.3,1.4-2.6,1.8-4.2c0.4-1.5,0.6-3.1,0.6-4.7c0-1.7-0.2-3.3-0.6-4.8C160.5,87.6,159.9,86.2,159.1,85z M151,100.2
	c-1.4,1.5-3.3,2.2-5.8,2.2h-2.1V85.6h2.2c2.5,0,4.4,0.8,5.8,2.3c1.3,1.5,2,3.6,2,6.2C153.1,96.7,152.4,98.7,151,100.2z M259.1,80.9
	c-1.7-1.6-4.4-2.4-7.9-2.4h-9.7v31h3.7V97h5.8c3.5,0,6.1-0.8,7.9-2.3c1.8-1.5,2.7-3.8,2.7-6.8C261.7,84.8,260.8,82.5,259.1,80.9z
	 M255.9,92.4c-1.2,0.9-2.7,1.4-4.6,1.4h-6.1V81.7h6c2,0,3.6,0.5,4.7,1.4c1.1,1,1.7,2.5,1.7,4.6C257.7,89.9,257.1,91.5,255.9,92.4z
	 M274,78.5h-2.3l-11.9,31h3.9l3.5-9.6h11.2l3.7,9.6h4L274,78.5z M268.4,96.6l4.3-11.8l4.5,11.8H268.4z M233.4,95.1
	c-0.8-0.7-1.7-1.3-2.7-1.9c-1-0.5-2.1-1-3.1-1.5c-1.1-0.5-2.1-0.9-3-1.3c-0.9-0.4-1.7-0.8-2.3-1.3c-0.6-0.4-1.1-0.9-1.5-1.5
	c-0.4-0.5-0.5-1.2-0.5-2c0-1.4,0.5-2.5,1.5-3.3c1-0.8,2.4-1.2,4.2-1.2c1.5,0,2.9,0.3,4.1,1c1.3,0.7,2.3,1.6,3.1,2.7l2.8-2.2
	c-1.1-1.7-2.6-2.9-4.4-3.7c-1.8-0.8-3.7-1.2-5.6-1.2c-1.3,0-2.5,0.2-3.6,0.5c-1.2,0.3-2.2,0.8-3.1,1.5c-0.9,0.7-1.6,1.5-2.2,2.5
	c-0.5,1-0.8,2.2-0.8,3.5c0,1.3,0.3,2.4,0.8,3.3c0.5,0.9,1.2,1.7,2,2.4c0.8,0.7,1.7,1.3,2.8,1.7c1,0.5,2.1,1,3.1,1.4
	c0.9,0.4,1.8,0.8,2.7,1.2c0.9,0.4,1.6,0.9,2.3,1.4c0.7,0.5,1.2,1.1,1.6,1.8c0.4,0.7,0.6,1.4,0.6,2.3c0,0.9-0.2,1.7-0.5,2.4
	c-0.3,0.7-0.8,1.2-1.3,1.6c-0.5,0.4-1.2,0.7-1.9,0.9c-0.7,0.2-1.5,0.3-2.3,0.3c-1.5,0-3-0.3-4.5-1c-1.5-0.7-2.6-1.6-3.5-2.9
	l-2.9,2.2c0.5,0.8,1.2,1.5,2,2.2c0.8,0.6,1.7,1.2,2.6,1.6c0.9,0.4,1.9,0.8,3,1c1,0.2,2.1,0.3,3.1,0.3c1.4,0,2.7-0.2,3.9-0.5
	c1.2-0.3,2.3-0.9,3.2-1.6c0.9-0.7,1.7-1.7,2.2-2.8c0.5-1.1,0.8-2.5,0.8-4.1c0-1.3-0.2-2.5-0.7-3.4C234.8,96.7,234.2,95.8,233.4,95.1
	z M205.4,103.1c-0.7,0.6-1.5,0.9-2.5,0.9c-1.1,0-2.1-0.5-2.8-1.5c-0.7-1-1.1-2.4-1.1-4.4c0-2,0.4-3.5,1.1-4.5
	c0.7-0.9,1.6-1.4,2.7-1.4c0.9,0,1.6,0.3,2.3,0.8c0.6,0.5,1.2,1.5,1.6,2.9l6.2-2.7c-0.3-1-0.8-1.9-1.3-2.7c-0.6-0.8-1.3-1.6-2.1-2.2
	c-0.9-0.6-1.9-1.1-3-1.4c-1.1-0.3-2.5-0.5-3.9-0.5c-1.6,0-3.2,0.3-4.5,0.8c-1.4,0.5-2.6,1.3-3.6,2.3c-1,1-1.8,2.3-2.4,3.7
	c-0.6,1.5-0.9,3.2-0.9,5.1c0,1.9,0.3,3.6,0.9,5c0.6,1.5,1.4,2.7,2.4,3.7c1,1,2.3,1.7,3.7,2.3c1.4,0.5,2.9,0.8,4.5,0.8
	c2.8,0,5-0.5,6.7-1.6c1.7-1.1,3-2.7,3.9-4.7l-6.1-3C206.6,101.7,206.1,102.5,205.4,103.1z M185.2,89.7c-1-1.1-2.3-1.9-3.7-2.5
	c-1.5-0.6-3.1-0.9-5-0.9c-1.9,0-3.6,0.3-5,0.9c-1.5,0.6-2.7,1.4-3.7,2.5c-1,1.1-1.8,2.3-2.3,3.7c-0.5,1.4-0.8,3-0.8,4.6
	c0,1.6,0.3,3.2,0.8,4.6c0.5,1.5,1.3,2.7,2.3,3.8c1,1.1,2.3,1.9,3.7,2.5c1.5,0.6,3.2,0.9,5.1,0.9c1.9,0,3.6-0.3,5-0.9
	c1.5-0.6,2.7-1.5,3.7-2.5c1-1.1,1.8-2.3,2.3-3.8c0.5-1.5,0.8-3,0.8-4.6c0-1.7-0.3-3.2-0.8-4.6C187,92,186.2,90.8,185.2,89.7z
	 M179.3,102.3c-0.7,1.1-1.6,1.7-2.9,1.7c-1.3,0-2.3-0.6-3-1.7c-0.7-1.1-1-2.6-1-4.2c0-1.7,0.3-3,1-4.1c0.7-1.1,1.6-1.6,2.9-1.6
	c1.3,0,2.3,0.5,2.9,1.6c0.7,1.1,1,2.5,1,4.1C180.3,99.7,180,101.1,179.3,102.3z"/>
<path class="st4" d="M50.7,12.5c3,1.5,4.1,2.1,5.7,3.3c0.8,0.7,1.4,1.4,1.9,2.2c0.7,1.1,1.1,2.7,0.7,4.6L59,22.9c0,0,0,0.1,0,0.1
	c0,0.3,0.2,0.5,0.5,0.5c0.2,0,0.3-0.1,0.4-0.2l0,0c4.4-5.7,4-11-3.7-13.7c-6-2.1-6.8-5.9-6.6-8.1l0,0C49.5,1.2,49.3,1,49,1
	c-0.2,0-0.3,0.1-0.4,0.2l-0.2,0.2c-1.8,2.6-2.1,4.7-1.7,6.4C46.7,7.9,47.7,11,50.7,12.5z M3.2,112.2l0.3,8.6
	c0,5.9,22,10.7,49.2,10.7s49.2-4.8,49.2-10.7l0.3-8.6c-7.9,5.3-29.2,8.1-49.5,8.1C32.4,120.4,11.1,117.5,3.2,112.2z M46.7,39.5
	L46.7,39.5c0.1,0,0.2,0,0.2,0c0.3,0,0.5-0.2,0.5-0.5c0-0.1,0-0.1,0-0.2l0,0c-2.1-4.9,0.1-4.8,7.2-13.7c5.6-7-4.7-10.8-10.4-12.2l0,0
	c0,0-0.1,0-0.1,0c-0.3,0-0.5,0.2-0.5,0.5c0,0.2,0.1,0.3,0.2,0.4l0,0c7.7,4.7,2,6.8-1.2,15C39.9,35.8,44.4,38.6,46.7,39.5z
	 M103.1,87.9l1-28.9c0-2.6-7-4.9-18.1-6.5l6.9-16.8c0.4-0.9-0.1-1.8-1.1-2l-32.1-4.3c-1-0.1-2.1,0.5-2.5,1.5L49,50.5
	c-26.6,0.3-47.6,4-47.6,8.5l1,28.9c2.4,3.1,13.5,6.6,31,8.1l0.3,2.6C20,97.4,8,94.9,2.5,91.2l0.6,17.7c3.2,4.1,21.5,8.9,49.6,8.9
	c28.1,0,46.4-4.9,49.6-8.9l0.6-17.6c-5.3,3.6-16.7,6-29.9,7.2l0.3-2.6C90.2,94.3,100.8,90.9,103.1,87.9z M63.6,35.4l19.5,2.8
	c0.6,0.1,1,0.6,0.9,1.2c-0.1,0.5-0.5,0.9-1,0.9c0,0-0.1,0-0.1,0l-19.5-2.8c-0.6-0.1-1-0.6-0.9-1.2C62.5,35.8,63.1,35.4,63.6,35.4z
	 M61.3,40.6l19.5,2.8c0.6,0.1,1,0.6,0.9,1.2c-0.1,0.5-0.5,0.9-1,0.9c0,0-0.1,0-0.1,0L61,42.7c-0.6-0.1-1-0.6-0.9-1.2
	C60.2,41,60.7,40.6,61.3,40.6z M59.5,45.9l10,1.4c0.6,0.1,1,0.6,0.9,1.2c-0.1,0.5-0.5,0.9-1,0.9c0,0-0.1,0-0.1,0l-10-1.4
	c-0.6-0.1-1-0.6-0.9-1.2C58.4,46.2,58.9,45.8,59.5,45.9z M67.6,103l-14.2,7.9L39.2,103l-2.6-22.1l16.8-6l16.8,6L67.6,103z M52.8,67
	c-24.5,0-44.3-2.8-44.3-6.3c0-3.2,17-5.9,38.9-6.3l-2.5,6c4.7,0.6,11.3,1,19.6,1c7.6,0,13.7-0.4,18.3-0.9l1.7-4.3
	c7.8,1.1,12.6,2.7,12.6,4.4C97.1,64.2,77.2,67,52.8,67z M42.9,102.3h3.9l2.1-5.3h8.9l2.1,5.3h3.9L53.4,78.8L42.9,102.3z M50.3,93.8
	l3.1-7.4l3.1,7.4H50.3z"/>
<path class="st5" d="M59.9,102.3h3.9L53.4,78.8v7.6l3.1,7.4h-3.1v3.2h4.4L59.9,102.3z M103.1,87.9l0.9-25.8l0,0
	c0,5.2-22.6,9.5-50.6,9.5v3.2l16.8,6L67.6,103l-14.2,7.9v6.9c27.8-0.1,45.8-4.9,49-8.9l0.6-17.6c-5.3,3.6-16.7,6-29.9,7.2l0.3-2.6
	C90.2,94.3,100.8,90.9,103.1,87.9z M53.4,131.5c26.9-0.1,48.6-4.8,48.6-10.7l0.3-8.6c-7.8,5.3-28.8,8.1-48.9,8.1V131.5z"/>
</svg>
