<?xml version="1.0" encoding="utf-8"?>
<!-- Generator: Adobe Illustrator 22.0.1, SVG Export Plug-In . SVG Version: 6.00 Build 0)  -->
<svg version="1.1" id="Layer_1" xmlns="http://www.w3.org/2000/svg" xmlns:xlink="http://www.w3.org/1999/xlink" x="0px" y="0px"
	 viewBox="0 0 125 57.6" style="enable-background:new 0 0 125 57.6;" xml:space="preserve" width="125">
<style type="text/css">
	.st0{fill:#FFFFFF;}
	.st1{fill:none;stroke:#FFFFFF;stroke-width:2;stroke-miterlimit:10;}
	.st2{fill:none;stroke:#FFFFFF;stroke-width:3;stroke-linecap:round;stroke-linejoin:round;stroke-miterlimit:10;}
	.st3{stroke:#000000;stroke-width:5;stroke-miterlimit:10;}
	.st4{fill:#D2433F;}
	.st5{fill:#A83A37;}
	.st6{fill:none;stroke:#000000;stroke-width:5;stroke-linecap:round;stroke-linejoin:round;stroke-miterlimit:10;}
	.st7{fill:#028ACF;}
	.st8{fill:none;stroke:#000000;stroke-width:3.0778;stroke-linecap:round;stroke-linejoin:round;stroke-miterlimit:10;}
	.st9{fill:none;stroke:#FFFFFF;stroke-width:2;stroke-linecap:round;stroke-linejoin:round;stroke-miterlimit:10;}
	.st10{fill:#B53A36;}
	.st11{fill:none;stroke:#FFFFFF;stroke-width:1.0306;stroke-linecap:round;stroke-linejoin:round;stroke-miterlimit:10;}
	.st12{fill:none;stroke:#FFFFFF;stroke-width:1.2917;stroke-linecap:round;stroke-linejoin:round;stroke-miterlimit:10;}
</style>
<g>
	<path class="st5" d="M69.2,36.9c-0.3-0.5-0.8-1-1.3-1.4c-0.5-0.4-1.1-0.7-1.8-1c-0.6-0.2-1.2-0.3-1.9-0.4c-0.7-0.1-1.3-0.1-1.9-0.1
		h-3.7v13.5h3.7c0.6,0,1.3,0,2-0.1c0.7-0.1,1.3-0.2,1.9-0.4c0.7-0.2,1.3-0.6,1.8-1s0.9-0.9,1.3-1.4c0.4-0.5,0.6-1.2,0.8-1.8
		c0.2-0.7,0.3-1.4,0.3-2.1c0-0.7-0.1-1.4-0.3-2.1C69.8,38,69.6,37.4,69.2,36.9z M65.7,43.5c-0.6,0.6-1.4,1-2.5,1h-0.9v-7.3h1
		c1.1,0,1.9,0.3,2.5,1c0.6,0.7,0.9,1.6,0.9,2.7C66.6,42,66.3,42.9,65.7,43.5z M112.9,35.1c-0.8-0.7-1.9-1-3.5-1h-4.2v13.5h1.6v-5.4
		h2.5c1.5,0,2.7-0.3,3.5-1c0.8-0.7,1.2-1.7,1.2-3C114,36.8,113.7,35.8,112.9,35.1z M111.5,40.1c-0.5,0.4-1.2,0.6-2,0.6h-2.7v-5.3
		h2.6c0.9,0,1.6,0.2,2.1,0.6c0.5,0.4,0.7,1.1,0.7,2S112,39.7,111.5,40.1z M119.4,34.1h-1l-5.2,13.5h1.7l1.5-4.2h4.9l1.6,4.2h1.8
		L119.4,34.1z M117,42l1.9-5.2l2,5.2H117z M101.7,41.3c-0.4-0.3-0.8-0.6-1.2-0.8c-0.4-0.2-0.9-0.4-1.4-0.6c-0.5-0.2-0.9-0.4-1.3-0.6
		c-0.4-0.2-0.7-0.4-1-0.6c-0.3-0.2-0.5-0.4-0.6-0.6c-0.2-0.2-0.2-0.5-0.2-0.9c0-0.6,0.2-1.1,0.7-1.4c0.4-0.4,1.1-0.5,1.9-0.5
		c0.6,0,1.2,0.2,1.8,0.5c0.5,0.3,1,0.7,1.3,1.2l1.2-1c-0.5-0.7-1.1-1.3-1.9-1.6c-0.8-0.3-1.6-0.5-2.5-0.5c-0.6,0-1.1,0.1-1.6,0.2
		c-0.5,0.1-1,0.4-1.4,0.6c-0.4,0.3-0.7,0.7-1,1.1c-0.2,0.4-0.4,1-0.4,1.5c0,0.6,0.1,1,0.3,1.4c0.2,0.4,0.5,0.7,0.9,1
		c0.4,0.3,0.8,0.6,1.2,0.8c0.4,0.2,0.9,0.4,1.4,0.6c0.4,0.2,0.8,0.4,1.2,0.5s0.7,0.4,1,0.6c0.3,0.2,0.5,0.5,0.7,0.8s0.3,0.6,0.3,1
		c0,0.4-0.1,0.8-0.2,1.1c-0.1,0.3-0.3,0.5-0.6,0.7c-0.2,0.2-0.5,0.3-0.8,0.4c-0.3,0.1-0.7,0.1-1,0.1c-0.7,0-1.3-0.1-1.9-0.4
		c-0.6-0.3-1.1-0.7-1.5-1.3l-1.3,1c0.2,0.4,0.5,0.7,0.9,0.9c0.3,0.3,0.7,0.5,1.1,0.7c0.4,0.2,0.8,0.3,1.3,0.4s0.9,0.2,1.4,0.2
		c0.6,0,1.2-0.1,1.7-0.2c0.5-0.1,1-0.4,1.4-0.7c0.4-0.3,0.7-0.7,1-1.2c0.2-0.5,0.4-1.1,0.4-1.8c0-0.6-0.1-1.1-0.3-1.5
		C102.3,42,102,41.6,101.7,41.3z M89.5,44.8c-0.3,0.3-0.7,0.4-1.1,0.4c-0.5,0-0.9-0.2-1.2-0.6c-0.3-0.4-0.5-1.1-0.5-1.9
		c0-0.9,0.2-1.5,0.5-2c0.3-0.4,0.7-0.6,1.2-0.6c0.4,0,0.7,0.1,1,0.3c0.3,0.2,0.5,0.6,0.7,1.2l2.7-1.2c-0.1-0.4-0.3-0.8-0.6-1.2
		c-0.2-0.4-0.6-0.7-0.9-1c-0.4-0.3-0.8-0.5-1.3-0.6c-0.5-0.1-1.1-0.2-1.7-0.2c-0.7,0-1.4,0.1-2,0.3c-0.6,0.2-1.1,0.6-1.6,1
		c-0.4,0.4-0.8,1-1,1.6c-0.3,0.6-0.4,1.4-0.4,2.2c0,0.8,0.1,1.6,0.4,2.2c0.3,0.6,0.6,1.2,1.1,1.6c0.5,0.4,1,0.8,1.6,1
		c0.6,0.2,1.3,0.3,2,0.3c1.2,0,2.2-0.2,2.9-0.7c0.7-0.5,1.3-1.2,1.7-2.1l-2.7-1.3C90,44.2,89.7,44.6,89.5,44.8z M80.6,39
		c-0.4-0.5-1-0.8-1.6-1.1c-0.6-0.3-1.4-0.4-2.2-0.4c-0.8,0-1.6,0.1-2.2,0.4c-0.6,0.3-1.2,0.6-1.6,1.1c-0.4,0.5-0.8,1-1,1.6
		c-0.2,0.6-0.3,1.3-0.3,2c0,0.7,0.1,1.4,0.3,2c0.2,0.6,0.6,1.2,1,1.7c0.4,0.5,1,0.8,1.6,1.1c0.6,0.3,1.4,0.4,2.2,0.4
		c0.8,0,1.6-0.1,2.2-0.4s1.2-0.6,1.6-1.1c0.4-0.5,0.8-1,1-1.7c0.2-0.6,0.3-1.3,0.3-2c0-0.7-0.1-1.4-0.3-2C81.4,40,81.1,39.4,80.6,39
		z M78,44.4c-0.3,0.5-0.7,0.8-1.3,0.8c-0.6,0-1-0.2-1.3-0.8C75.2,44,75,43.3,75,42.6c0-0.7,0.1-1.3,0.4-1.8c0.3-0.5,0.7-0.7,1.3-0.7
		c0.6,0,1,0.2,1.3,0.7c0.3,0.5,0.4,1.1,0.4,1.8C78.5,43.3,78.3,44,78,44.4z"/>
	<path class="st4" d="M21.8,5.2c1.3,0.7,1.8,0.9,2.5,1.5c0.3,0.3,0.6,0.6,0.8,1c0.3,0.5,0.5,1.2,0.3,2l0,0.1c0,0,0,0,0,0.1
		c0,0.1,0.1,0.2,0.2,0.2c0.1,0,0.1,0,0.2-0.1l0,0c1.9-2.5,1.8-4.8-1.6-6c-2.6-0.9-3-2.6-2.9-3.5l0,0c0-0.1-0.1-0.2-0.2-0.2
		c-0.1,0-0.1,0-0.2,0.1l-0.1,0.1c-0.8,1.1-0.9,2.1-0.8,2.8C20.1,3.2,20.5,4.6,21.8,5.2z M1.1,48.8l0.1,3.8c0,2.6,9.6,4.7,21.5,4.7
		s21.5-2.1,21.5-4.7l0.1-3.8c-3.4,2.3-12.8,3.6-21.6,3.6C13.9,52.3,4.5,51.1,1.1,48.8z M20.1,17L20.1,17C20.1,17,20.1,17,20.1,17
		c0.2,0,0.3-0.1,0.3-0.2c0,0,0-0.1,0-0.1l0,0c-0.9-2.1,0.1-2.1,3.1-6c2.4-3.1-2-4.7-4.5-5.3l0,0c0,0,0,0-0.1,0
		c-0.1,0-0.2,0.1-0.2,0.2c0,0.1,0,0.1,0.1,0.2l0,0c3.4,2.1,0.9,3-0.5,6.6C17.1,15.4,19.1,16.6,20.1,17z M44.7,38.2l0.4-12.6
		c0-1.1-3.1-2.2-7.9-2.8l3-7.4c0.2-0.4-0.1-0.8-0.5-0.9l-14-1.9c-0.4-0.1-0.9,0.2-1.1,0.6l-3.6,8.6C9.5,22,0.3,23.6,0.3,25.5
		l0.4,12.6c1.1,1.3,5.9,2.9,13.5,3.5l0.1,1.1c-6-0.5-11.2-1.6-13.6-3.2l0.3,7.7c1.4,1.8,9.4,3.9,21.7,3.9c12.3,0,20.3-2.1,21.7-3.9
		l0.3-7.7c-2.3,1.6-7.3,2.6-13,3.2l0.1-1.1C39.1,40.9,43.7,39.5,44.7,38.2z M27.5,15.2l8.5,1.2c0.2,0,0.4,0.3,0.4,0.5
		c0,0.2-0.2,0.4-0.4,0.4c0,0,0,0-0.1,0l-8.5-1.2c-0.2,0-0.4-0.3-0.4-0.5C27,15.4,27.2,15.2,27.5,15.2z M26.5,17.5l8.5,1.2
		c0.2,0,0.4,0.3,0.4,0.5c0,0.2-0.2,0.4-0.4,0.4c0,0,0,0-0.1,0l-8.5-1.2c-0.2,0-0.4-0.3-0.4-0.5C26,17.6,26.2,17.5,26.5,17.5z
		 M25.7,19.8l4.4,0.6c0.2,0,0.4,0.3,0.4,0.5c0,0.2-0.2,0.4-0.4,0.4c0,0,0,0-0.1,0l-4.4-0.6c-0.2,0-0.4-0.3-0.4-0.5
		C25.2,19.9,25.4,19.8,25.7,19.8z M29.2,44.8L23,48.2l-6.2-3.4l-1.1-9.7l7.3-2.6l7.3,2.6L29.2,44.8z M22.7,29
		C12,29,3.4,27.8,3.4,26.3c0-1.4,7.4-2.6,17-2.7l-1.1,2.6c2.1,0.3,4.9,0.5,8.6,0.5c3.3,0,6-0.2,8-0.4l0.8-1.9
		c3.4,0.5,5.5,1.2,5.5,1.9C42.1,27.8,33.4,29,22.7,29z M18.4,44.5h1.7l0.9-2.3H25l0.9,2.3h1.7L23,34.2L18.4,44.5z M21.7,40.8
		l1.3-3.2l1.3,3.2H21.7z"/>
	<path class="st5" d="M25.9,44.5h1.7L23,34.2v3.3l1.3,3.2H23v1.4H25L25.9,44.5z M44.7,38.2l0.4-11.3l0,0c0,2.3-9.9,4.1-22.1,4.2v1.4
		l7.3,2.6l-1.1,9.7L23,48.2v3c12.1,0,20-2.1,21.4-3.9l0.3-7.7c-2.3,1.6-7.3,2.6-13,3.2l0.1-1.1C39.1,40.9,43.7,39.5,44.7,38.2z
		 M23,57.2c11.7,0,21.2-2.1,21.2-4.7l0.1-3.8C41,51.1,31.8,52.3,23,52.3V57.2z"/>
</g>
</svg>
